<svg width="591" height="274" viewBox="0 0 591 274" fill="none" xmlns="http://www.w3.org/2000/svg">
<path d="M50.8121 0.303101L13.0423 7.69368C5.46848 9.17568 0 15.8574 0 23.6295V254.766C0 263.732 7.21498 271 16.1151 271H53.8849C62.785 271 70 263.732 70 254.766V16.239C70 6.03141 60.7591 -1.64328 50.8121 0.303101Z" fill="white"/>
<path d="M463.939 1.87065C469.475 0.551998 475.227 1.18959 480.879 1.07366C492.978 1.27653 505.078 0.783851 517.178 1.23306C521.54 1.05917 525.539 4.97166 525.322 9.37683C526.104 29.8232 524.452 50.342 526.249 70.7449C536.697 71.0057 547.159 70.6435 557.607 70.9043C562.548 70.7594 568.113 74.1212 568.605 79.3813C569.257 87.4816 568.794 95.6399 568.924 103.784C568.678 106.943 569.199 110.551 567.214 113.275C564.519 117.361 559.201 118.014 554.752 118.579C545.29 119.013 535.813 118.55 526.336 118.753C526.249 141.764 526.278 164.789 526.278 187.801C526.09 197.843 529.77 208.812 538.595 214.42C545.029 218.869 553.187 217.898 560.577 217.782C567.127 217.637 573.532 214.637 580.111 216.101C584.951 219.506 585.501 225.926 586.719 231.229C588.168 239.895 591.153 248.546 590.081 257.414C589.37 262.66 583.806 264.819 579.488 266.398C555.172 274.006 528.524 276.788 503.817 269.369C489.66 265.21 476.401 256.559 468.533 243.865C461.548 232.258 458.447 218.564 458.476 205.088C458.462 176.368 458.52 147.647 458.476 118.941C450.883 118.579 442.522 119.303 435.798 115.188C430.987 109.725 432.683 101.668 432.291 94.9588C432.726 88.0468 430.799 79.9175 435.61 74.1502C441.884 68.6727 450.883 71.4984 458.433 70.8029C458.621 52.2403 458.491 33.6632 458.491 15.1151C458.389 10.2173 459.331 4.58041 463.939 1.87065Z" fill="white"/>
<path d="M311.772 65.1087C333.972 64.4131 356.143 68.1228 377.4 74.3827C384.631 76.6433 392.239 78.4836 398.542 82.8598C403.672 86.2361 402.223 93.2786 400.716 98.2344C397.731 106.262 395.079 114.551 390.659 121.927C387.254 128.114 379.226 126.317 373.531 125.477C355.462 121.072 337.131 117.043 318.496 116.348C310.917 116.753 302.701 117.579 296.412 122.216C292.398 125.042 291.818 131.853 295.963 134.823C300.846 138.721 307.237 139.765 313.192 141.011C336.16 145.257 360.345 146.72 381.414 157.733C393.195 163.761 403.107 173.934 407.251 186.671C410.222 194.438 409.483 202.886 409.584 211.03C409.976 222.854 405.107 234.447 397.629 243.46C383.24 260.197 361.287 268.703 339.783 271.007C318.452 271.543 296.832 272.499 275.821 268.08C261.156 265.341 246.593 261.805 232.479 256.936C227.625 255.212 221.394 251.807 222.002 245.793C222.886 238.867 226.625 232.766 229.161 226.376C232.117 220.203 234.29 212.537 240.898 209.291C245.289 208.175 249.752 209.943 253.983 211.059C270.401 216.391 287.312 220.275 304.498 222.072C314.163 223.695 324.582 224.043 333.566 219.579C337.073 217.812 340.203 213.972 339.449 209.842C337.305 203.669 330.451 201.394 324.683 200.031C313.236 197.467 301.513 196.336 289.949 194.322C271.43 191.163 251.621 186.468 237.971 172.644C227.683 162.732 223.393 148.082 223.582 134.099C222.901 117.435 228.842 100.075 241.521 88.8879C260.272 71.3542 286.964 66.268 311.772 65.1087Z" fill="white"/>
<path d="M112 20C112 8.95431 120.954 0 132 0H161C172.046 0 181 8.95431 181 20V49C181 60.0457 172.046 69 161 69H132C120.954 69 112 60.0457 112 49V20Z" fill="#00C2FF"/>
<path d="M112 121C112 109.954 120.954 101 132 101H161C172.046 101 181 109.954 181 121V150C181 161.046 172.046 170 161 170H132C120.954 170 112 161.046 112 150V121Z" fill="#00C2FF"/>
<path d="M112 222C112 210.954 120.954 202 132 202H161C172.046 202 181 210.954 181 222V251C181 262.046 172.046 271 161 271H132C120.954 271 112 262.046 112 251V222Z" fill="#00C2FF"/>
</svg>
